<?xml version="1.0" encoding="utf-8"?>
<!-- Generator: Adobe Illustrator 19.2.1, SVG Export Plug-In . SVG Version: 6.00 Build 0)  -->
<svg version="1.1" id="USARMY_x5F_2D_x5F_2C_x5F_A4_x5F_NS_x5F_NG"
	 xmlns="http://www.w3.org/2000/svg" xmlns:xlink="http://www.w3.org/1999/xlink" x="0px" y="0px" width="94.9px" height="120px"
	 viewBox="0 0 94.9 120" style="enable-background:new 0 0 94.9 120;" xml:space="preserve">
<style type="text/css">
	.st0{fill:#FFC627;}
	.st1{fill:#231F20;}
	.st2{fill:#FFFFFF;}
</style>
<g>
	<g>
		<path class="st0" d="M89.4,90.7c0-1.3,1.1-2.2,2.3-2.2c1.2,0,2.3,0.9,2.3,2.2c0,1.3-1.1,2.2-2.3,2.2C90.5,92.9,89.4,92,89.4,90.7z
			 M91.7,89c-0.9,0-1.7,0.7-1.7,1.7c0,1,0.7,1.7,1.7,1.7c0.9,0,1.7-0.7,1.7-1.7C93.3,89.7,92.6,89,91.7,89z M91.3,91.9h-0.5v-2.5
			h0.9c0.6,0,1,0.2,1,0.7c0,0.5-0.3,0.6-0.6,0.7l0.6,1.1h-0.5l-0.6-1.1h-0.3V91.9z M91.3,90.5h0.4c0.4,0,0.5-0.1,0.5-0.3
			c0-0.2-0.2-0.3-0.5-0.3h-0.4V90.5z"/>
	</g>
	<path class="st1" d="M6.4,89C2.3,89-1,92.3-1,96.4v17.1c0,4.1,3.3,7.4,7.4,7.4h75.3c4.1,0,7.4-3.3,7.4-7.4V96.4
		c0-4.1-3.3-7.4-7.4-7.4H6.4z"/>
	<g>
		<path class="st0" d="M81.8,91.4H6.4c-2.8,0-5.1,2.3-5.1,5.1v17.1c0,2.8,2.3,5.1,5.1,5.1h75.3c2.8,0,5.1-2.3,5.1-5.1V96.4
			C86.8,93.6,84.6,91.4,81.8,91.4z M84.5,113.6c0,1.5-1.2,2.7-2.7,2.7H6.4c-1.5,0-2.7-1.2-2.7-2.7V96.4c0-1.5,1.2-2.7,2.7-2.7h75.3
			c1.5,0,2.7,1.2,2.7,2.7V113.6z"/>
	</g>
	<path class="st1" d="M6.4,1C2.3,1-1,4.3-1,8.4v70.8c0,4.1,3.3,7.4,7.4,7.4h75.3c4.1,0,7.4-3.3,7.4-7.4V8.4c0-4.1-3.3-7.4-7.4-7.4
		H6.4z"/>
	<g>
		<path class="st0" d="M81.8,3.4H6.4c-2.8,0-5.1,2.3-5.1,5.1v70.8c0,2.8,2.3,5.1,5.1,5.1h75.3c2.8,0,5.1-2.3,5.1-5.1V8.4
			C86.8,5.6,84.6,3.4,81.8,3.4z M84.5,79.3c0,1.5-1.2,2.7-2.7,2.7H6.4c-1.5,0-2.7-1.2-2.7-2.7V8.4C3.7,7,5,5.7,6.4,5.7h75.3
			c1.5,0,2.7,1.2,2.7,2.7V79.3z"/>
	</g>
	<g>
		<path class="st2" d="M17.5,110.2l-2.2,2.1h-3.8l-2.3-2.1V97.6h3.4v12h1.5v-12h3.4V110.2z"/>
		<path class="st2" d="M22.1,112.4h-3.4v-2.8h3.4V112.4z"/>
		<path class="st2" d="M29.3,97.6l2.4,2.1v2.6h-3.4v-2h-1.4v3l2.5,0.2l2.3,2.1v4.5l-2.2,2.1h-3.8l-2.2-2.1v-2.6h3.4v2h1.4v-3.1
			l-2.4-0.2l-2.4-2.1v-4.4l2.2-2.1H29.3z"/>
		<path class="st2" d="M36.3,112.4h-3.4v-2.8h3.4V112.4z"/>
		<path class="st2" d="M43.1,106.9h-1.5l0.5-6.1h0.3L43.1,106.9z M44.8,97.6h-4.9l-2.1,14.8h3.3l0.3-2.7h2l0.3,2.7H47L44.8,97.6z"/>
		<path class="st2" d="M53.2,100.4v3.3h-1.4v-3.3H53.2z M56.5,99.7l-2.3-2.1h-5.8v14.8h3.4v-5.9h1.4v5.9h3.3v-5.9l-1.7-1.4l1.7-1.4
			V99.7z"/>
		<path class="st2" d="M68.8,112.4h-3.1V103h-0.1l-1.4,9.4h-1.3l-1.4-9.4h-0.1v9.4h-3.1V97.6h4l1.2,7.2h0.3l1.1-7.2h4V112.4z"/>
		<path class="st2" d="M76.5,106.2v6.2h-3.4v-6.2l-2.9-8.6h3.4l1.2,5.3h0l1.2-5.3h3.4L76.5,106.2z"/>
	</g>
	<polygon class="st0" points="65.1,76.2 44.1,60.9 23.1,76.2 31.1,51.4 10.1,36.2 36.1,36.2 44.1,11.5 52.1,36.2 78.1,36.2 
		57.1,51.4 65.1,76.2 	"/>
	<polygon class="st1" points="60.4,69.7 44.1,57.8 27.8,69.7 34,50.5 17.7,38.6 37.9,38.6 44.1,19.4 50.3,38.6 70.5,38.6 54.2,50.5 
		60.4,69.7 	"/>
	<polygon class="st2" points="44.1,27.1 48.6,41 63.2,41 51.4,49.6 55.9,63.5 44.1,54.9 32.3,63.5 36.8,49.6 25,41 39.6,41 	"/>
</g>
</svg>
