<?xml version="1.0" encoding="utf-8"?>
<!-- Generator: Adobe Illustrator 19.2.1, SVG Export Plug-In . SVG Version: 6.00 Build 0)  -->
<svg version="1.1" id="Layer_1" xmlns="http://www.w3.org/2000/svg" xmlns:xlink="http://www.w3.org/1999/xlink" x="0px" y="0px"
	 width="32px" height="32px" viewBox="0 0 32 32" style="enable-background:new 0 0 32 32;" xml:space="preserve">
<style type="text/css">
	.st0{fill:#727B93;}
</style>
<g>
	<path class="st0" d="M16,0C7.2,0,0,7.2,0,16c0,8.8,7.2,16,16,16c8.8,0,16-7.2,16-16C32,7.2,24.8,0,16,0L16,0z M16,30.3
		C8.1,30.3,1.7,23.9,1.7,16C1.7,8.1,8.1,1.7,16,1.7c7.9,0,14.3,6.4,14.3,14.3C30.3,23.9,23.9,30.3,16,30.3L16,30.3z M17.2,16
		l5.3-5.3c0.3-0.3,0.3-0.8,0-1.2c-0.3-0.3-0.8-0.3-1.2,0L16,14.8l-5.3-5.3c-0.3-0.3-0.8-0.3-1.2,0c-0.3,0.3-0.3,0.8,0,1.2l5.3,5.3
		l-5.3,5.3c-0.3,0.3-0.3,0.8,0,1.2c0.3,0.3,0.8,0.3,1.2,0l5.3-5.3l5.3,5.3c0.3,0.3,0.8,0.3,1.2,0c0.3-0.3,0.3-0.8,0-1.2L17.2,16z"/>
</g>
</svg>
