<?xml version="1.0" encoding="utf-8"?>
<!-- Generator: Adobe Illustrator 19.2.1, SVG Export Plug-In . SVG Version: 6.00 Build 0)  -->
<svg version="1.1" id="Layer_1" xmlns="http://www.w3.org/2000/svg" xmlns:xlink="http://www.w3.org/1999/xlink" x="0px" y="0px"
	 width="82.4px" height="57.2px" viewBox="0 0 82.4 57.2" style="enable-background:new 0 0 82.4 57.2;" xml:space="preserve">
<style type="text/css">
	.st0{opacity:0.7;fill:#455272;enable-background:new    ;}
</style>
<path class="st0" d="M15.8,28.7c1.4-0.5,2.7-0.9,3.8-1.2c1.1-0.3,2.1-0.4,3-0.4c3.6,0,6.6,1.3,9.1,3.9s3.7,5.8,3.7,9.6
	c0,4.7-1.6,8.6-4.9,11.8s-7.4,4.8-12.5,4.8s-9.4-2-12.8-6C1.7,47.3,0,42.2,0,35.9c0-9.3,3.1-17.2,9.3-23.8C15.5,5.6,23.9,1.6,34.4,0
	v10c-6,1.4-10.4,3.6-13.3,6.5C18.1,19.4,16.4,23.5,15.8,28.7z M62.8,28.7c1.4-0.5,2.7-0.9,3.8-1.2c1.1-0.3,2.1-0.4,2.9-0.4
	c3.6,0,6.7,1.3,9.2,3.9s3.7,5.8,3.7,9.6c0,4.7-1.7,8.6-5,11.8s-7.5,4.8-12.5,4.8c-5.1,0-9.4-2-12.7-6c-3.4-4-5-9.1-5-15.3
	c0-9.4,3.1-17.3,9.2-23.8C62.6,5.6,70.9,1.6,81.3,0v10c-6,1.4-10.4,3.6-13.3,6.5S63.4,23.5,62.8,28.7z"/>
</svg>
