<?xml version="1.0" encoding="utf-8"?>
<!-- Generator: Adobe Illustrator 19.2.1, SVG Export Plug-In . SVG Version: 6.00 Build 0)  -->
<svg version="1.1" id="Layer_1" xmlns="http://www.w3.org/2000/svg" xmlns:xlink="http://www.w3.org/1999/xlink" x="0px" y="0px"
	 width="600px" height="260.7px" viewBox="0 0 600 260.7" style="enable-background:new 0 0 600 260.7;" xml:space="preserve">
<style type="text/css">
	.st0{fill:#455272;}
	.st1{fill:none;}
</style>
<g>
	<path class="st0" d="M274.2,135.4l-1.6-1.4c0,0,1.2-1.8-0.1-2.6s-2.3,1.8-2.3,1.8l-15.8-10.3c3-2.8,4.7-7.6,1.3-8s-7.1,2.9-7.1,2.9
		l-1-3.4c0,0,0,0-0.8-1.2c-0.8-1.2-4.2-4-4.2-4c1-0.6,0.2-2.4,0.2-2.4l-2.2-2.4l3.6-4c0,0,2.6,1.8,7.7-1.2c5.2-3,5.4-18.4,5.4-18.4
		s1.6,0.4,1.6-4.8c0-5.2-2.8-7.3-3.6-8.1s-0.6-2.2-1.8-3.6c-1.2-1.4-7.1-9.1-7.1-9.1c0.8-1.2,0-4.6,0-4.6l-6.7-5.4
		c-3.4-5.4-7.9-6.6-7.9-6.6c-0.8-2.4-4.6-4.4-4.6-4.4h-5.9c-1.2,0-1.3-0.4-3.3-0.3v-3.4c0-0.9,1.9-3.2,2.1-4.2
		c0.2-0.9,1.2-0.9,1.2-0.9c0.5,0.1,1.1,0.1,1.6,0.1c0.2,0,0.5-0.1,0.7-0.1c1.5-0.5,2.3-1.9,2.5-3.6c0.2-1.6-0.6-4.3-1.1-5.9
		c-0.3-2.4-0.6-4.6-0.6-4.6c-0.4-5.6-2.6-7.6-2.6-7.6c-4.4-5.4-14.9-4.6-20.4-1.2s-5.1,12.2-5.1,12.2s-1.9,4.7-1.6,7
		c0.3,2.4,1.6,4.3,4.5,3.7c0,0,1.6-0.1,1.8,0.9s2.2,3.3,2.2,4.2v5l-5.7-0.1c0,0-2.5,1.9-4.7,2.5s-8.2,3.8-10.3,5.7
		c-2.1,2-5.9,6.4-6.1,8.5c-0.2,2.1-0.1,2.6-2,4.6c-1.9,2-3.3,5.6-3.3,6.8c0,1.2-4.2-1.4-5.7,4.2c-1.5,5.6-2.6,11.2-1.3,13.2
		c1.3,2,3,1.7,4.1,5.7c1.1,4.1-0.1,6.2,1.9,7.8c2,1.6,7.8,6.7,8.4,7s3,0.4,3.7,2.2c0.7,1.8,2.4,2.3,2.4,2.3s0.4,5.1-0.5,8.2
		c-0.9,3.2-2.2,6.4-0.7,9.4c1.5,3,0,7.8-0.6,9.4c-0.6,1.6-2.5,6.8-0.4,9.2c2.1,2.4,3.8,3,3.8,3s0,5.1-0.7,5.8
		c-0.7,0.8-2.7,5-2.4,10.8s-0.7,13-0.5,15c0.2,2,1,3.2,1,3.2s0.5,3.9-0.4,6.6c0,0-0.2,3.6,0.1,4.7s-2.4,5.6-3.1,9.6
		s-0.9,8.3-0.9,8.3s-3.1,1.6-2.7,4.2s1,2.2,1,3s-0.1,3,0.8,3.8c0.9,0.8,2,1.3,2,2.4s-1.4,5.4-0.1,6.6s1.9,1.3,1,2.9
		c-0.9,1.6-0.7,6.8-0.7,6.8s-4.1,5.9-7.1,8.1c-3.1,2.2-7.7,6.8-5.4,10.2c2.4,3.4,9.9,1,12.8-0.2c2.9-1.2,6.1-7.9,6.1-7.9h3.3
		c0,0,2.6,0.2,2.6-0.6s-0.5-14.7-0.4-16.5c0.1-1.9,1.6-8.5,2.3-9.5c0.7-1,2.9-3,3.9-5.2c1-2.2,2.6-1.5,2.9-3c0.3-1.5,0-3.6-1.1-4.7
		c-1.1-1.1,1.2-10.5,1.4-13.1s6.5-15.7,6.5-18.2c0-2.5,0.5-8.5,0.8-9.6c0.3-1.1,1.6-11.5,2.3-12c0.7-0.5,1.6-0.5,1.4,3.3
		c-0.2,3.8,1.2,11.7,2.4,14.8s6,14.3,6,14.3s-0.9,7.3-0.2,10.4s2.6,11.7,4.7,14.3c0,0-1.2,1.6-0.5,3.8c0.7,2.2,4.1,4.8,4.5,5.4
		c0.4,0.6,3.1,8.2,3.1,9.4c0,1.2,0.2,5.2-0.1,6.3c-0.3,1.2-1,3.1-1.1,6.5s0.2,5.1,0.2,5.1s3.6,3.3,7,2.8c0,0,3,4.7,6.8,6
		c3.9,1.4,11.8,3.1,12.5-2.4c0.7-5.5-8.4-10.3-8.7-10.4s-5.5-6.8-5.7-9.5c-0.2-2.7-0.6-12.4-0.1-13.3s1.5-3.7,2.2-4.1
		c0.7-0.4,1.5-4.9-0.1-5.2c0,0-0.5-9.6-1.1-12.6s-2.1-7-2.1-7.9s1.4-6,0.2-9.9c-1.2-3.9-2.9-5.6-1.7-6.2c0,0,2.2,0.5,2.8-2.6
		s-0.2-12.2-0.1-13.8c0.1-1.6-0.6-3.1-1-2.9c0,0-0.3-1.1,0.2-2c0.5-0.9,0.9-4,0.3-5c-0.6-1-0.6-2.8-0.6-3.1c0-0.3,0.2-1,0.2-1
		s3.1-3.8,2.1-8.3c-1-4.6-1.9-8.2-3.4-9.3c-1.5-1.1-0.7-2.4-1.4-4.1c-0.7-1.7-0.4-1.8-1.3-3.1c-0.9-1.3-1-2.9-0.3-2.6
		s1.6,0.5,2.5,1.8c0.9,1.3,1.7,2,2.6,1.8s1.9-0.6,2.5-0.6c0.6,0,1.6,0.2,1.9,0.2s0.8-0.8,0.7-1.2s2.9,0.9,2.9,2.7
		c0,1.8,2.5,1.6,2.8,1.2c0.3-0.4,0.5,0.1,0.5,0.1l17.9,11.6C272.5,137.8,275.4,137.5,274.2,135.4z M237.4,69.6
		c-1.6-0.5-2.4,0.9-2.4,0.9v-4.8c0,0-0.2-0.8,1.7,1.3S237.4,69.6,237.4,69.6z M253.3,120.6c-0.7-1.1-2.9-2-2.9-2c2.8-3.4,5-2,5-2
		C257,119.7,253.3,120.6,253.3,120.6z"/>
	<path class="st1" d="M235,65.8v4.8c0,0,0.8-1.5,2.4-0.9c0,0,1.3-0.4-0.7-2.5S235,65.8,235,65.8z"/>
	<path class="st1" d="M255.3,116.6c0,0-2.2-1.4-5,2c0,0,2.2,0.9,2.9,2C253.3,120.6,257,119.7,255.3,116.6z"/>
</g>
<g>
	<path class="st0" d="M110.9,135.4l-1.6-1.4c0,0,1.2-1.8-0.1-2.6s-2.3,1.8-2.3,1.8l-15.8-10.3c3-2.8,4.7-7.6,1.3-8s-7.1,2.9-7.1,2.9
		l-1-3.4c0,0,0,0-0.8-1.2c-0.8-1.2-4.2-4-4.2-4c1-0.6,0.2-2.4,0.2-2.4l-2.2-2.4l3.6-4c0,0,2.6,1.8,7.7-1.2c5.2-3,5.4-18.4,5.4-18.4
		s1.6,0.4,1.6-4.8c0-5.2-2.8-7.3-3.6-8.1s-0.6-2.2-1.8-3.6c-1.2-1.4-7.1-9.1-7.1-9.1c0.8-1.2,0-4.6,0-4.6l-6.7-5.4
		c-3.4-5.4-7.9-6.6-7.9-6.6c-0.8-2.4-4.6-4.4-4.6-4.4h-5.9c-1.2,0-1.1-0.4-3.1-0.3v-3.4c0-0.9,1.7-3.2,1.9-4.2
		c0.2-0.9,1.2-0.9,1.2-0.9c0.5,0.1,1.1,0.1,1.6,0.1c0.2,0,0.5-0.1,0.7-0.1c1.5-0.5,2.3-1.9,2.5-3.6c0.2-1.6-0.6-4.3-1.1-5.9
		c-0.3-2.4-0.6-4.6-0.6-4.6c-0.4-5.6-2.6-7.6-2.6-7.6c-4.4-5.4-14.9-4.6-20.4-1.2s-5.1,12.2-5.1,12.2s-1.9,4.7-1.6,7
		c0.3,2.4,1.6,4.3,4.5,3.7c0,0,1.7-0.1,1.9,0.9s2.3,3.3,2.3,4.2v5l-5.8-0.1c0,0-2.5,1.9-4.8,2.5s-8.3,3.8-10.3,5.7
		c-2.1,2-6,6.4-6.2,8.5c-0.2,2.1-0.2,2.6-2,4.6c-1.9,2-3.3,5.6-3.3,6.8c0,1.2-4.2-1.4-5.7,4.2c-1.5,5.6-2.6,11.2-1.3,13.2
		c1.3,2,3,1.7,4.1,5.7c1.1,4.1-0.1,6.2,1.9,7.8c2,1.6,7.8,6.7,8.4,7s3,0.4,3.7,2.2c0.7,1.8,2.4,2.3,2.4,2.3s0.4,5.1-0.5,8.2
		c-0.9,3.2-2.2,6.4-0.7,9.4c1.5,3,0,7.8-0.6,9.4c-0.6,1.6-2.5,6.8-0.4,9.2c2.1,2.4,3.8,3,3.8,3s0,5.1-0.7,5.8
		c-0.7,0.8-2.7,5-2.4,10.8s-0.7,13-0.5,15c0.2,2,1,3.2,1,3.2s0.5,3.9-0.4,6.6c0,0-0.2,3.6,0.1,4.7s-2.4,5.6-3.1,9.6
		c-0.7,4.1-0.9,8.3-0.9,8.3s-3.1,1.6-2.7,4.2s1,2.2,1,3s-0.1,3,0.8,3.8c0.9,0.8,2,1.3,2,2.4s-1.4,5.4-0.1,6.6s1.9,1.3,1,2.9
		c-0.9,1.6-0.7,6.8-0.7,6.8s-4.1,5.9-7.1,8.1c-3.1,2.2-7.7,6.8-5.4,10.2c2.4,3.4,9.9,1,12.8-0.2c2.9-1.2,6.1-7.9,6.1-7.9h3.3
		c0,0,2.6,0.2,2.6-0.6s-0.5-14.7-0.4-16.5c0.1-1.9,1.6-8.5,2.3-9.5c0.7-1,2.9-3,3.9-5.2c1-2.2,2.6-1.5,2.9-3c0.3-1.5,0-3.6-1.1-4.7
		c-1.1-1.1,1.2-10.5,1.4-13.1s6.5-15.7,6.5-18.2c0-2.5,0.5-8.5,0.8-9.6c0.3-1.1,1.6-11.5,2.3-12c0.7-0.5,1.6-0.5,1.4,3.3
		C49,164,50.4,172,51.6,175s6,14.3,6,14.3s-0.9,7.3-0.2,10.4s2.6,11.7,4.7,14.3c0,0-1.2,1.6-0.5,3.8c0.7,2.2,4.1,4.8,4.5,5.4
		c0.4,0.6,3.1,8.2,3.1,9.4c0,1.2,0.2,5.2-0.1,6.3c-0.3,1.2-1,3.1-1.1,6.5s0.2,5.1,0.2,5.1s3.6,3.3,7,2.8c0,0,3,4.7,6.8,6
		c3.9,1.4,11.8,3.1,12.5-2.4c0.7-5.5-8.4-10.3-8.7-10.4s-5.5-6.8-5.7-9.5c-0.2-2.7-0.6-12.4-0.1-13.3s1.5-3.7,2.2-4.1
		c0.7-0.4,1.5-4.9-0.1-5.2c0,0-0.5-9.6-1.1-12.6s-2.1-7-2.1-7.9s1.4-6,0.2-9.9c-1.2-3.9-2.9-5.6-1.7-6.2c0,0,2.2,0.5,2.8-2.6
		s-0.2-12.2-0.1-13.8c0.1-1.6-0.6-3.1-1-2.9c0,0-0.3-1.1,0.2-2c0.5-0.9,0.9-4,0.3-5c-0.6-1-0.6-2.8-0.6-3.1c0-0.3,0.2-1,0.2-1
		s3.1-3.8,2.1-8.3c-1-4.6-1.9-8.2-3.4-9.3c-1.5-1.1-0.7-2.4-1.4-4.1c-0.7-1.7-0.4-1.8-1.3-3.1c-0.9-1.3-1-2.9-0.3-2.6
		s1.6,0.5,2.5,1.8c0.9,1.3,1.7,2,2.6,1.8s1.9-0.6,2.5-0.6c0.6,0,1.6,0.2,1.9,0.2s0.8-0.8,0.7-1.2s2.9,0.9,2.9,2.7
		c0,1.8,2.5,1.6,2.8,1.2c0.3-0.4,0.5,0.1,0.5,0.1l17.9,11.6C109.2,137.8,112.1,137.5,110.9,135.4z M74.3,69.6
		c-1.6-0.5-2.3,0.9-2.3,0.9v-4.8c0,0-0.3-0.8,1.7,1.3S74.3,69.6,74.3,69.6z M90,120.6c-0.7-1.1-2.9-2-2.9-2c2.8-3.4,5-2,5-2
		C93.7,119.7,90,120.6,90,120.6z"/>
	<path class="st1" d="M72,65.8v4.8c0,0,0.7-1.5,2.3-0.9c0,0,1.4-0.4-0.6-2.5S72,65.8,72,65.8z"/>
	<path class="st1" d="M92.1,116.6c0,0-2.2-1.4-5,2c0,0,2.2,0.9,2.9,2C90,120.6,93.7,119.7,92.1,116.6z"/>
</g>
<g>
	<path class="st0" d="M436.4,135.4l-1.6-1.4c0,0,1.2-1.8-0.1-2.6s-2.3,1.8-2.3,1.8l-15.8-10.3c3-2.8,4.7-7.6,1.3-8s-7.1,2.9-7.1,2.9
		l-1-3.4c0,0,0,0-0.8-1.2c-0.8-1.2-4.2-4-4.2-4c1-0.6,0.2-2.4,0.2-2.4l-2.2-2.4l3.6-4c0,0,2.6,1.8,7.7-1.2c5.2-3,5.4-18.4,5.4-18.4
		s1.6,0.4,1.6-4.8c0-5.2-2.8-7.3-3.6-8.1s-0.6-2.2-1.8-3.6c-1.2-1.4-7.1-9.1-7.1-9.1c0.8-1.2,0-4.6,0-4.6l-6.7-5.4
		c-3.4-5.4-7.9-6.6-7.9-6.6c-0.8-2.4-4.6-4.4-4.6-4.4h-5.9c-1.2,0-1.6-0.4-3.6-0.3v-3.4c0-0.9,2-3.2,2.2-4.2
		c0.2-0.9,1.3-0.9,1.3-0.9c0.5,0.1,1.2,0.1,1.6,0.1c0.2,0,0.5-0.1,0.7-0.1c1.5-0.5,2.3-1.9,2.5-3.6c0.2-1.6-0.6-4.3-1.1-5.9
		c-0.3-2.4-0.6-4.6-0.6-4.6c-0.4-5.6-2.6-7.6-2.6-7.6c-4.4-5.4-14.9-4.6-20.4-1.2s-5.1,12.2-5.1,12.2s-1.9,4.7-1.6,7
		c0.3,2.4,1.6,4.3,4.5,3.7c0,0,1.5-0.1,1.7,0.9s2.1,3.3,2.1,4.2v5l-5.6-0.1c0,0-2.4,1.9-4.7,2.5s-8.2,3.8-10.3,5.7
		c-2.1,2-5.9,6.4-6.1,8.5c-0.2,2.1-0.1,2.6-2,4.6c-1.9,2-3.3,5.6-3.3,6.8c0,1.2-4.2-1.4-5.7,4.2c-1.5,5.6-2.6,11.2-1.3,13.2
		c1.3,2,3,1.7,4.1,5.7c1.1,4.1-0.1,6.2,1.9,7.8c2,1.6,7.8,6.7,8.4,7s3,0.4,3.7,2.2c0.7,1.8,2.4,2.3,2.4,2.3s0.4,5.1-0.5,8.2
		c-0.9,3.2-2.2,6.4-0.7,9.4c1.5,3,0,7.8-0.6,9.4c-0.6,1.6-2.5,6.8-0.4,9.2c2.1,2.4,3.8,3,3.8,3s0,5.1-0.7,5.8
		c-0.7,0.8-2.7,5-2.4,10.8s-0.7,13-0.5,15c0.2,2,1,3.2,1,3.2s0.5,3.9-0.4,6.6c0,0-0.2,3.6,0.1,4.7s-2.4,5.6-3.1,9.6
		s-0.9,8.3-0.9,8.3s-3.1,1.6-2.7,4.2s1,2.2,1,3s-0.1,3,0.8,3.8c0.9,0.8,2,1.3,2,2.4s-1.4,5.4-0.1,6.6s1.9,1.3,1,2.9
		c-0.9,1.6-0.7,6.8-0.7,6.8s-4.1,5.9-7.1,8.1c-3.1,2.2-7.7,6.8-5.4,10.2c2.4,3.4,9.9,1,12.8-0.2c2.9-1.2,6.1-7.9,6.1-7.9h3.3
		c0,0,2.6,0.2,2.6-0.6s-0.5-14.7-0.4-16.5c0.1-1.9,1.6-8.5,2.3-9.5c0.7-1,2.9-3,3.9-5.2c1-2.2,2.6-1.5,2.9-3c0.3-1.5,0-3.6-1.1-4.7
		c-1.1-1.1,1.2-10.5,1.4-13.1s6.5-15.7,6.5-18.2c0-2.5,0.5-8.5,0.8-9.6c0.3-1.1,1.6-11.5,2.3-12c0.7-0.5,1.6-0.5,1.4,3.3
		c-0.2,3.8,1.2,11.7,2.4,14.8s6,14.3,6,14.3s-0.9,7.3-0.2,10.4s2.6,11.7,4.7,14.3c0,0-1.2,1.6-0.5,3.8c0.7,2.2,4.1,4.8,4.5,5.4
		c0.4,0.6,3.1,8.2,3.1,9.4c0,1.2,0.2,5.2-0.1,6.3c-0.3,1.2-1,3.1-1.1,6.5s0.2,5.1,0.2,5.1s3.6,3.3,7,2.8c0,0,3,4.7,6.8,6
		c3.9,1.4,11.8,3.1,12.5-2.4c0.7-5.5-8.4-10.3-8.7-10.4s-5.5-6.8-5.7-9.5c-0.2-2.7-0.6-12.4-0.1-13.3s1.5-3.7,2.2-4.1
		c0.7-0.4,1.5-4.9-0.1-5.2c0,0-0.5-9.6-1.1-12.6s-2.1-7-2.1-7.9s1.4-6,0.2-9.9c-1.2-3.9-2.9-5.6-1.7-6.2c0,0,2.2,0.5,2.8-2.6
		s-0.2-12.2-0.1-13.8c0.1-1.6-0.6-3.1-1-2.9c0,0-0.3-1.1,0.2-2c0.5-0.9,0.9-4,0.3-5c-0.6-1-0.6-2.8-0.6-3.1c0-0.3,0.2-1,0.2-1
		s3.1-3.8,2.1-8.3c-1-4.6-1.9-8.2-3.4-9.3c-1.5-1.1-0.7-2.4-1.4-4.1c-0.7-1.7-0.4-1.8-1.3-3.1c-0.9-1.3-1-2.9-0.3-2.6
		s1.6,0.5,2.5,1.8c0.9,1.3,1.7,2,2.6,1.8s1.9-0.6,2.5-0.6c0.6,0,1.6,0.2,1.9,0.2s0.8-0.8,0.7-1.2s2.9,0.9,2.9,2.7
		c0,1.8,2.5,1.6,2.8,1.2c0.3-0.4,0.5,0.1,0.5,0.1l17.9,11.6C434.7,137.8,437.6,137.5,436.4,135.4z M399.5,69.6
		c-1.6-0.5-2.5,0.9-2.5,0.9v-4.8c0,0-0.2-0.8,1.8,1.3S399.5,69.6,399.5,69.6z M415.5,120.6c-0.7-1.1-2.9-2-2.9-2c2.8-3.4,5-2,5-2
		C419.3,119.7,415.5,120.6,415.5,120.6z"/>
	<path class="st1" d="M397,65.8v4.8c0,0,1-1.5,2.5-0.9c0,0,1.2-0.4-0.7-2.5S397,65.8,397,65.8z"/>
	<path class="st1" d="M417.6,116.6c0,0-2.2-1.4-5,2c0,0,2.2,0.9,2.9,2C415.5,120.6,419.3,119.7,417.6,116.6z"/>
</g>
<g>
	<path class="st0" d="M599.7,135.4l-1.6-1.4c0,0,1.2-1.8-0.1-2.6s-2.3,1.8-2.3,1.8L580,122.9c3-2.8,4.7-7.6,1.3-8s-7.1,2.9-7.1,2.9
		l-1-3.4c0,0,0,0-0.8-1.2c-0.8-1.2-4.2-4-4.2-4c1-0.6,0.2-2.4,0.2-2.4l-2.2-2.4l3.6-4c0,0,2.6,1.8,7.7-1.2c5.2-3,5.4-18.4,5.4-18.4
		s1.6,0.4,1.6-4.8c0-5.2-2.8-7.3-3.6-8.1s-0.6-2.2-1.8-3.6c-1.2-1.4-7.1-9.1-7.1-9.1c0.8-1.2,0-4.6,0-4.6l-6.7-5.4
		c-3.4-5.4-7.9-6.6-7.9-6.6c-0.8-2.4-4.6-4.4-4.6-4.4h-5.9c-1.2,0-0.9-0.4-2.9-0.3v-3.4c0-0.9,1.6-3.2,1.8-4.2
		c0.2-0.9,1.1-0.9,1.1-0.9c0.5,0.1,1.1,0.1,1.5,0.1c0.2,0,0.5-0.1,0.7-0.1c1.5-0.5,2.2-1.9,2.5-3.6c0.2-1.6-0.6-4.3-1.1-5.9
		c-0.3-2.4-0.6-4.6-0.6-4.6c-0.4-5.6-2.6-7.6-2.6-7.6c-4.4-5.4-14.9-4.6-20.4-1.2s-5.1,12.2-5.1,12.2s-1.9,4.7-1.6,7
		c0.3,2.4,1.6,4.3,4.5,3.7c0,0,1.8-0.1,2,0.9s2.4,3.3,2.4,4.2v5l-5.9-0.1c0,0-2.6,1.9-4.8,2.5s-8.3,3.8-10.4,5.7
		c-2.1,2-6,6.4-6.2,8.5c-0.2,2.1-0.2,2.6-2,4.6c-1.9,2-3.3,5.6-3.3,6.8c0,1.2-4.2-1.4-5.7,4.2c-1.5,5.6-2.6,11.2-1.3,13.2
		c1.3,2,3,1.7,4.1,5.7c1.1,4.1-0.1,6.2,1.9,7.8c2,1.6,7.8,6.7,8.4,7s3,0.4,3.7,2.2c0.7,1.8,2.4,2.3,2.4,2.3s0.4,5.1-0.5,8.2
		c-0.9,3.2-2.2,6.4-0.7,9.4c1.5,3,0,7.8-0.6,9.4c-0.6,1.6-2.5,6.8-0.4,9.2c2.1,2.4,3.8,3,3.8,3s0,5.1-0.7,5.8
		c-0.7,0.8-2.7,5-2.4,10.8s-0.7,13-0.5,15c0.2,2,1,3.2,1,3.2s0.5,3.9-0.4,6.6c0,0-0.2,3.6,0.1,4.7s-2.4,5.6-3.1,9.6
		s-0.9,8.3-0.9,8.3s-3.1,1.6-2.7,4.2s1,2.2,1,3s-0.1,3,0.8,3.8c0.9,0.8,2,1.3,2,2.4s-1.4,5.4-0.1,6.6s1.9,1.3,1,2.9
		c-0.9,1.6-0.7,6.8-0.7,6.8s-4.1,5.9-7.1,8.1c-3.1,2.2-7.7,6.8-5.4,10.2c2.4,3.4,9.9,1,12.8-0.2c2.9-1.2,6.1-7.9,6.1-7.9h3.3
		c0,0,2.6,0.2,2.6-0.6s-0.5-14.7-0.4-16.5c0.1-1.9,1.6-8.5,2.3-9.5c0.7-1,2.9-3,3.9-5.2c1-2.2,2.6-1.5,2.9-3c0.3-1.5,0-3.6-1.1-4.7
		c-1.1-1.1,1.2-10.5,1.4-13.1s6.5-15.7,6.5-18.2c0-2.5,0.5-8.5,0.8-9.6c0.3-1.1,1.6-11.5,2.3-12c0.7-0.5,1.6-0.5,1.4,3.3
		c-0.2,3.8,1.2,11.7,2.4,14.8s6,14.3,6,14.3s-0.9,7.3-0.2,10.4s2.6,11.7,4.7,14.3c0,0-1.2,1.6-0.5,3.8c0.7,2.2,4.1,4.8,4.5,5.4
		c0.4,0.6,3.1,8.2,3.1,9.4c0,1.2,0.2,5.2-0.1,6.3c-0.3,1.2-1,3.1-1.1,6.5s0.2,5.1,0.2,5.1s3.6,3.3,7,2.8c0,0,3,4.7,6.8,6
		c3.9,1.4,11.8,3.1,12.5-2.4c0.7-5.5-8.4-10.3-8.7-10.4s-5.5-6.8-5.7-9.5c-0.2-2.7-0.6-12.4-0.1-13.3s1.5-3.7,2.2-4.1
		c0.7-0.4,1.5-4.9-0.1-5.2c0,0-0.5-9.6-1.1-12.6s-2.1-7-2.1-7.9s1.4-6,0.2-9.9c-1.2-3.9-2.9-5.6-1.7-6.2c0,0,2.2,0.5,2.8-2.6
		s-0.2-12.2-0.1-13.8c0.1-1.6-0.6-3.1-1-2.9c0,0-0.3-1.1,0.2-2c0.5-0.9,0.9-4,0.3-5c-0.6-1-0.6-2.8-0.6-3.1c0-0.3,0.2-1,0.2-1
		s3.1-3.8,2.1-8.3c-1-4.6-1.9-8.2-3.4-9.3c-1.5-1.1-0.7-2.4-1.4-4.1c-0.7-1.7-0.4-1.8-1.3-3.1c-0.9-1.3-1-2.9-0.3-2.6
		s1.6,0.5,2.5,1.8c0.9,1.3,1.7,2,2.6,1.8s1.9-0.6,2.5-0.6c0.6,0,1.6,0.2,1.9,0.2s0.8-0.8,0.7-1.2s2.9,0.9,2.9,2.7
		c0,1.8,2.5,1.6,2.8,1.2c0.3-0.4,0.5,0.1,0.5,0.1l17.9,11.6C598,137.8,600.9,137.5,599.7,135.4z M563.2,69.6
		c-1.6-0.5-2.2,0.9-2.2,0.9v-4.8c0,0-0.4-0.8,1.6,1.3S563.2,69.6,563.2,69.6z M578.8,120.6c-0.7-1.1-2.9-2-2.9-2c2.8-3.4,5-2,5-2
		C582.6,119.7,578.8,120.6,578.8,120.6z"/>
	<path class="st1" d="M561,65.8v4.8c0,0,0.6-1.5,2.2-0.9c0,0,1.4-0.4-0.6-2.5S561,65.8,561,65.8z"/>
	<path class="st1" d="M580.9,116.6c0,0-2.2-1.4-5,2c0,0,2.2,0.9,2.9,2C578.8,120.6,582.6,119.7,580.9,116.6z"/>
</g>
</svg>
